<svg xmlns="http://www.w3.org/2000/svg" xmlns:xlink="http://www.w3.org/1999/xlink"><symbol id="icon-arrowsmall" viewBox="0 0 25 25">
<path fill-rule="evenodd" clip-rule="evenodd" d="M8.59998 8.4L13.2 13L8.59998 17.6L9.99998 19L16 13L9.99998 7L8.59998 8.4Z" fill="#48494D" fill-opacity="0.5"/>
</symbol><symbol id="icon-facebook" viewBox="0 0 12 20">
<path d="M7.58268 11.5H10.1868L11.2285 7.5H7.58268V5.5C7.58268 4.47 7.58268 3.5 9.66602 3.5H11.2285V0.14C10.8889 0.0970001 9.60664 0 8.25247 0C5.42435 0 3.41602 1.657 3.41602 4.7V7.5H0.291016V11.5H3.41602V20H7.58268V11.5Z" fill="white"/>
</symbol><symbol id="icon-instagram" viewBox="0 0 20 20">
<path d="M10 0C12.717 0 13.056 0.00999994 14.122 0.0599999C15.187 0.11 15.912 0.277 16.55 0.525C17.21 0.779 17.766 1.123 18.322 1.678C18.8305 2.1779 19.224 2.78259 19.475 3.45C19.722 4.087 19.89 4.813 19.94 5.878C19.987 6.944 20 7.283 20 10C20 12.717 19.99 13.056 19.94 14.122C19.89 15.187 19.722 15.912 19.475 16.55C19.2247 17.2178 18.8311 17.8226 18.322 18.322C17.822 18.8303 17.2173 19.2238 16.55 19.475C15.913 19.722 15.187 19.89 14.122 19.94C13.056 19.987 12.717 20 10 20C7.283 20 6.944 19.99 5.878 19.94C4.813 19.89 4.088 19.722 3.45 19.475C2.78233 19.2245 2.17753 18.8309 1.678 18.322C1.16941 17.8222 0.775931 17.2175 0.525 16.55C0.277 15.913 0.11 15.187 0.0599999 14.122C0.0129999 13.056 0 12.717 0 10C0 7.283 0.00999994 6.944 0.0599999 5.878C0.11 4.812 0.277 4.088 0.525 3.45C0.775236 2.78218 1.1688 2.17732 1.678 1.678C2.17767 1.16923 2.78243 0.775729 3.45 0.525C4.088 0.277 4.812 0.11 5.878 0.0599999C6.944 0.0129999 7.283 0 10 0ZM10 5C8.67392 5 7.40215 5.52678 6.46447 6.46447C5.52678 7.40215 5 8.67392 5 10C5 11.3261 5.52678 12.5979 6.46447 13.5355C7.40215 14.4732 8.67392 15 10 15C11.3261 15 12.5979 14.4732 13.5355 13.5355C14.4732 12.5979 15 11.3261 15 10C15 8.67392 14.4732 7.40215 13.5355 6.46447C12.5979 5.52678 11.3261 5 10 5ZM16.5 4.75C16.5 4.41848 16.3683 4.10054 16.1339 3.86612C15.8995 3.6317 15.5815 3.5 15.25 3.5C14.9185 3.5 14.6005 3.6317 14.3661 3.86612C14.1317 4.10054 14 4.41848 14 4.75C14 5.08152 14.1317 5.39946 14.3661 5.63388C14.6005 5.8683 14.9185 6 15.25 6C15.5815 6 15.8995 5.8683 16.1339 5.63388C16.3683 5.39946 16.5 5.08152 16.5 4.75ZM10 7C10.7956 7 11.5587 7.31607 12.1213 7.87868C12.6839 8.44129 13 9.20435 13 10C13 10.7956 12.6839 11.5587 12.1213 12.1213C11.5587 12.6839 10.7956 13 10 13C9.20435 13 8.44129 12.6839 7.87868 12.1213C7.31607 11.5587 7 10.7956 7 10C7 9.20435 7.31607 8.44129 7.87868 7.87868C8.44129 7.31607 9.20435 7 10 7Z" fill="white"/>
</symbol><symbol id="icon-mail" viewBox="0 0 22 18">
<path d="M3 1H19C20.1 1 21 1.9 21 3V15C21 16.1 20.1 17 19 17H3C1.9 17 1 16.1 1 15V3C1 1.9 1.9 1 3 1Z" stroke="#000000" stroke-width="2" stroke-linecap="round" stroke-linejoin="round"/>
<path d="M21 3L11 10L1 3" stroke="white" stroke-width="2" stroke-linecap="round" stroke-linejoin="round"/>
</symbol><symbol id="icon-phone" viewBox="0 0 20 20">
<path d="M18.9638 14.4765V17.1862C18.9648 17.4377 18.9133 17.6867 18.8125 17.9172C18.7117 18.1477 18.5639 18.3546 18.3786 18.5247C18.1932 18.6947 17.9743 18.8242 17.736 18.9048C17.4978 18.9854 17.2452 19.0153 16.9947 18.9927C14.2153 18.6907 11.5455 17.7409 9.19974 16.2197C7.01735 14.8329 5.16706 12.9827 3.78028 10.8003C2.25379 8.44389 1.30381 5.76107 1.00733 2.96915C0.98476 2.71938 1.01444 2.46764 1.09449 2.22996C1.17454 1.99229 1.30321 1.77389 1.47229 1.58866C1.64137 1.40343 1.84717 1.25544 2.07658 1.15411C2.30599 1.05278 2.55399 1.00032 2.80478 1.00009H5.51451C5.95286 0.995773 6.37782 1.151 6.71019 1.43683C7.04255 1.72267 7.25964 2.11961 7.32099 2.55366C7.43536 3.42084 7.64747 4.27229 7.95326 5.09177C8.07479 5.41507 8.10109 5.76642 8.02905 6.1042C7.95701 6.44198 7.78965 6.75203 7.5468 6.99761L6.39969 8.14473C7.6855 10.406 9.55783 12.2784 11.8191 13.5642L12.9663 12.4171C13.2118 12.1742 13.5219 12.0069 13.8597 11.9348C14.1975 11.8628 14.5488 11.8891 14.8721 12.0106C15.6916 12.3164 16.543 12.5285 17.4102 12.6429C17.849 12.7048 18.2497 12.9258 18.5361 13.2639C18.8226 13.6019 18.9748 14.0335 18.9638 14.4765Z" stroke="#000000" stroke-width="2" stroke-linecap="round" stroke-linejoin="round"/>
</symbol><symbol id="icon-skype" viewBox="0 0 512 512"><g><path d="M29.2,250.2c0.5-5.5,1.5-16.1,2.3-26.7c0.2-2.5-0.1-5.3-1.2-7.5c-40.1-80,2.5-175.4,89-198.3c34.2-9.1,67.3-5,99.1,10.8   c2.5,1.2,5.7,1.9,8.4,1.6c64-7.1,121.8,8.3,172,48.9c46.8,37.9,74.2,87.2,82.4,147.1c2.7,19.8,2.5,39.5,0.1,59.3   c-0.4,3,0.3,6.7,1.8,9.3c48.3,84.7-2.9,192-99.2,207.1c-33.8,5.3-65.6-1.2-95-18.9c-2.2-1.3-5.3-2.1-7.8-1.9   c-96.7,9.3-184.7-39-228.4-125.4C37.7,325.9,29.7,291.5,29.2,250.2z M48.6,255.4c0.7,50.2,18.1,98.3,52.2,136.2   c48.8,54.2,110.1,76.8,182.6,68.7c4.5-0.5,8.2,0.2,12.1,2.8c31.2,20.6,65,25.9,100.7,15.4c75.5-22.3,108.7-110.1,67.3-177.3   c-2.2-3.5-4.2-6.8-3.4-11.5c4.8-26.9,3.9-53.7-2.1-80.4C434.7,106.6,336.5,35.1,227,50.4c-5.8,0.8-10.5,0-15.6-2.7   c-53.4-29.1-120-14-154.5,36.1c-27.9,40.6-29.2,83.4-6.7,127c1.6,3.2,2.5,6.1,2,9.8C50.7,232.2,49.7,243.8,48.6,255.4z"/><path d="M253.5,383.1c-20.5-0.2-40.5-2.7-59.5-11c-11.6-5.1-22-11.9-30.6-21.2c-7.9-8.5-12.7-18.3-12.7-30.1   c-0.1-18.8,18.7-30.1,35.1-20.8c3.9,2.2,7.3,5.8,10.5,9.1c3.4,3.5,6.4,7.2,9.3,11.1c13.6,18,32.6,22.4,53.7,21.2   c10-0.5,19.3-3.3,27.5-9.4c9.4-7.1,14.2-16.3,12.1-28.2c-2-11.3-10.2-16.9-20.3-19.7c-19.6-5.4-39.3-10.2-59-15.1   c-15.4-3.9-30.5-8.2-43.6-17.8c-15.7-11.4-24-27-25-46.2c-1.8-35.4,13.7-60.3,47.4-72.7c40.7-15,80.8-12.7,118.9,9.2   c7.1,4.1,13.6,9.7,19.2,15.7c4,4.3,6.8,10.4,8.4,16.1c3.3,11.6-0.1,20.3-8.8,25.8c-9.8,6.2-22.2,6-30.8-1.3   c-5.7-4.8-10.7-10.5-15.9-15.9c-5.8-6-12.8-10.1-20.8-12.3c-13.8-3.8-27.6-4.4-41.4-0.5c-8.5,2.4-15.4,7.1-19.4,15.3   c-5.3,10.7-3.2,21,7.1,26.9c7.9,4.6,16.8,8.1,25.7,10.4c18.6,4.9,37.7,8.4,56.3,13.3c8.9,2.4,17.8,5.8,25.9,10.3   c26.9,14.9,36,40,32.8,68.5c-3.7,32.5-24.9,55.3-59.5,63.9c-13.8,3.4-28.2,4.5-42.3,6.6C253.6,384,253.6,383.5,253.5,383.1z"/></g></symbol><symbol id="icon-twitter" viewBox="0 0 26 22">
<path d="M25.5697 2.49509C24.6269 2.91733 23.6191 3.20248 22.5571 3.33409C23.6408 2.67605 24.4752 1.63414 24.8653 0.394827C23.8521 1.00352 22.7305 1.4477 21.533 1.6835C20.5739 0.647077 19.2085 0 17.7021 0C14.8032 0 12.457 2.37993 12.457 5.31371C12.457 5.73047 12.5004 6.13626 12.5925 6.52561C8.23065 6.30626 4.36186 4.18955 1.77726 0.970615C1.32752 1.75479 1.06744 2.67056 1.06744 3.64118C1.06744 5.4837 1.99399 7.11236 3.4028 8.06653C2.54126 8.04459 1.72849 7.80331 1.02409 7.403C1.02409 7.42493 1.02409 7.44687 1.02409 7.4688C1.02409 10.0461 2.83386 12.1903 5.23424 12.6783C4.79534 12.799 4.32935 12.8648 3.85253 12.8648C3.51658 12.8648 3.18606 12.8319 2.86637 12.7661C3.53284 14.8773 5.47265 16.4127 7.77008 16.4566C5.97656 17.8824 3.71165 18.7323 1.25167 18.7323C0.829025 18.7323 0.411803 18.7049 0 18.6556C2.3191 20.18 5.0771 21.0574 8.03558 21.0574C17.6913 21.0574 22.9689 12.958 22.9689 5.93337C22.9689 5.70305 22.9634 5.47274 22.9526 5.2479C23.9767 4.49664 24.8653 3.55892 25.5697 2.49509Z" fill="currentColor"/>
</symbol><symbol id="icon-vk" viewBox="0 0 31 19">
<path d="M29.3964 1.22392C29.6031 0.518896 29.3964 0 28.4024 0H25.1132C24.2755 0 23.8902 0.44558 23.6836 0.941953C23.6836 0.941953 22.0083 5.06499 19.6405 7.73853C18.8755 8.51126 18.5237 8.75948 18.1049 8.75948C17.8983 8.75948 17.5799 8.51126 17.5799 7.80623V1.22392C17.5799 0.377877 17.3453 0 16.6529 0H11.4817C10.9568 0 10.644 0.394853 10.644 0.761435C10.644 1.5623 11.828 1.74843 11.9508 4.0046V8.9005C11.9508 9.97217 11.7609 10.1695 11.3421 10.1695C10.2252 10.1695 7.51118 6.02953 5.9029 1.29163C5.57905 0.372263 5.26064 0 4.41743 0H1.12808C0.18991 0 0 0.44558 0 0.941953C0 1.82175 1.1169 6.19314 5.1991 11.9688C7.91872 15.9113 11.7496 18.0492 15.2343 18.0492C17.3284 18.0492 17.5854 17.5754 17.5854 16.7576C17.5854 12.9897 17.3955 12.6344 18.4454 12.6344C18.9312 12.6344 19.7689 12.8825 21.7235 14.7833C23.9571 17.0394 24.3258 18.0491 25.5767 18.0491H28.8659C29.8041 18.0491 30.2788 17.5754 30.0051 16.6389C29.3797 14.6705 25.1522 10.6207 24.9624 10.35C24.4766 9.71828 24.6161 9.43617 24.9624 8.8721C24.9681 8.86661 28.9831 3.15856 29.3964 1.22392Z" fill="currentColor"/>
</symbol></svg>