<svg xmlns="http://www.w3.org/2000/svg" xmlns:xlink="http://www.w3.org/1999/xlink"><symbol id="icon-facebook" viewBox="0 0 12 20">
<path d="M7.58268 11.5H10.1868L11.2285 7.5H7.58268V5.5C7.58268 4.47 7.58268 3.5 9.66602 3.5H11.2285V0.14C10.8889 0.0970001 9.60664 0 8.25247 0C5.42435 0 3.41602 1.657 3.41602 4.7V7.5H0.291016V11.5H3.41602V20H7.58268V11.5Z" fill="white"/>
</symbol><symbol id="icon-instagram" viewBox="0 0 20 20">
<path d="M10 0C12.717 0 13.056 0.00999994 14.122 0.0599999C15.187 0.11 15.912 0.277 16.55 0.525C17.21 0.779 17.766 1.123 18.322 1.678C18.8305 2.1779 19.224 2.78259 19.475 3.45C19.722 4.087 19.89 4.813 19.94 5.878C19.987 6.944 20 7.283 20 10C20 12.717 19.99 13.056 19.94 14.122C19.89 15.187 19.722 15.912 19.475 16.55C19.2247 17.2178 18.8311 17.8226 18.322 18.322C17.822 18.8303 17.2173 19.2238 16.55 19.475C15.913 19.722 15.187 19.89 14.122 19.94C13.056 19.987 12.717 20 10 20C7.283 20 6.944 19.99 5.878 19.94C4.813 19.89 4.088 19.722 3.45 19.475C2.78233 19.2245 2.17753 18.8309 1.678 18.322C1.16941 17.8222 0.775931 17.2175 0.525 16.55C0.277 15.913 0.11 15.187 0.0599999 14.122C0.0129999 13.056 0 12.717 0 10C0 7.283 0.00999994 6.944 0.0599999 5.878C0.11 4.812 0.277 4.088 0.525 3.45C0.775236 2.78218 1.1688 2.17732 1.678 1.678C2.17767 1.16923 2.78243 0.775729 3.45 0.525C4.088 0.277 4.812 0.11 5.878 0.0599999C6.944 0.0129999 7.283 0 10 0ZM10 5C8.67392 5 7.40215 5.52678 6.46447 6.46447C5.52678 7.40215 5 8.67392 5 10C5 11.3261 5.52678 12.5979 6.46447 13.5355C7.40215 14.4732 8.67392 15 10 15C11.3261 15 12.5979 14.4732 13.5355 13.5355C14.4732 12.5979 15 11.3261 15 10C15 8.67392 14.4732 7.40215 13.5355 6.46447C12.5979 5.52678 11.3261 5 10 5ZM16.5 4.75C16.5 4.41848 16.3683 4.10054 16.1339 3.86612C15.8995 3.6317 15.5815 3.5 15.25 3.5C14.9185 3.5 14.6005 3.6317 14.3661 3.86612C14.1317 4.10054 14 4.41848 14 4.75C14 5.08152 14.1317 5.39946 14.3661 5.63388C14.6005 5.8683 14.9185 6 15.25 6C15.5815 6 15.8995 5.8683 16.1339 5.63388C16.3683 5.39946 16.5 5.08152 16.5 4.75ZM10 7C10.7956 7 11.5587 7.31607 12.1213 7.87868C12.6839 8.44129 13 9.20435 13 10C13 10.7956 12.6839 11.5587 12.1213 12.1213C11.5587 12.6839 10.7956 13 10 13C9.20435 13 8.44129 12.6839 7.87868 12.1213C7.31607 11.5587 7 10.7956 7 10C7 9.20435 7.31607 8.44129 7.87868 7.87868C8.44129 7.31607 9.20435 7 10 7Z" fill="white"/>
</symbol><symbol id="icon-twitter" viewBox="0 0 26 22">
<path d="M25.5697 2.49509C24.6269 2.91733 23.6191 3.20248 22.5571 3.33409C23.6408 2.67605 24.4752 1.63414 24.8653 0.394827C23.8521 1.00352 22.7305 1.4477 21.533 1.6835C20.5739 0.647077 19.2085 0 17.7021 0C14.8032 0 12.457 2.37993 12.457 5.31371C12.457 5.73047 12.5004 6.13626 12.5925 6.52561C8.23065 6.30626 4.36186 4.18955 1.77726 0.970615C1.32752 1.75479 1.06744 2.67056 1.06744 3.64118C1.06744 5.4837 1.99399 7.11236 3.4028 8.06653C2.54126 8.04459 1.72849 7.80331 1.02409 7.403C1.02409 7.42493 1.02409 7.44687 1.02409 7.4688C1.02409 10.0461 2.83386 12.1903 5.23424 12.6783C4.79534 12.799 4.32935 12.8648 3.85253 12.8648C3.51658 12.8648 3.18606 12.8319 2.86637 12.7661C3.53284 14.8773 5.47265 16.4127 7.77008 16.4566C5.97656 17.8824 3.71165 18.7323 1.25167 18.7323C0.829025 18.7323 0.411803 18.7049 0 18.6556C2.3191 20.18 5.0771 21.0574 8.03558 21.0574C17.6913 21.0574 22.9689 12.958 22.9689 5.93337C22.9689 5.70305 22.9634 5.47274 22.9526 5.2479C23.9767 4.49664 24.8653 3.55892 25.5697 2.49509Z" fill="currentColor"/>
</symbol><symbol id="icon-vk" viewBox="0 0 31 19">
<path d="M29.3964 1.22392C29.6031 0.518896 29.3964 0 28.4024 0H25.1132C24.2755 0 23.8902 0.44558 23.6836 0.941953C23.6836 0.941953 22.0083 5.06499 19.6405 7.73853C18.8755 8.51126 18.5237 8.75948 18.1049 8.75948C17.8983 8.75948 17.5799 8.51126 17.5799 7.80623V1.22392C17.5799 0.377877 17.3453 0 16.6529 0H11.4817C10.9568 0 10.644 0.394853 10.644 0.761435C10.644 1.5623 11.828 1.74843 11.9508 4.0046V8.9005C11.9508 9.97217 11.7609 10.1695 11.3421 10.1695C10.2252 10.1695 7.51118 6.02953 5.9029 1.29163C5.57905 0.372263 5.26064 0 4.41743 0H1.12808C0.18991 0 0 0.44558 0 0.941953C0 1.82175 1.1169 6.19314 5.1991 11.9688C7.91872 15.9113 11.7496 18.0492 15.2343 18.0492C17.3284 18.0492 17.5854 17.5754 17.5854 16.7576C17.5854 12.9897 17.3955 12.6344 18.4454 12.6344C18.9312 12.6344 19.7689 12.8825 21.7235 14.7833C23.9571 17.0394 24.3258 18.0491 25.5767 18.0491H28.8659C29.8041 18.0491 30.2788 17.5754 30.0051 16.6389C29.3797 14.6705 25.1522 10.6207 24.9624 10.35C24.4766 9.71828 24.6161 9.43617 24.9624 8.8721C24.9681 8.86661 28.9831 3.15856 29.3964 1.22392Z" fill="currentColor"/>
</symbol></svg>